<svg xmlns="http://www.w3.org/2000/svg" xmlns:xlink="http://www.w3.org/1999/xlink" width="1080" zoomAndPan="magnify" viewBox="0 0 810 809.999993" height="1080" preserveAspectRatio="xMidYMid meet" version="1.0"><defs><clipPath id="afe996b740"><path d="M 315.945312 39.085938 L 494.71875 39.085938 L 494.71875 257.152344 L 315.945312 257.152344 Z M 315.945312 39.085938 " clip-rule="nonzero"/></clipPath><clipPath id="09fa793afc"><path d="M 0.945312 0.0859375 L 179.71875 0.0859375 L 179.71875 218 L 0.945312 218 Z M 0.945312 0.0859375 " clip-rule="nonzero"/></clipPath><clipPath id="98f336abb9"><rect x="0" width="180" y="0" height="219"/></clipPath><clipPath id="b358354f3a"><path d="M 386.265625 6.960938 L 423.734375 6.960938 L 423.734375 264.707031 L 386.265625 264.707031 Z M 386.265625 6.960938 " clip-rule="nonzero"/></clipPath><clipPath id="38c1acf5d5"><path d="M 0.265625 0.960938 L 37.734375 0.960938 L 37.734375 258.707031 L 0.265625 258.707031 Z M 0.265625 0.960938 " clip-rule="nonzero"/></clipPath><clipPath id="b16e611ad2"><rect x="0" width="38" y="0" height="259"/></clipPath><clipPath id="df5bd8f633"><path d="M 9.449219 474.933594 L 14.996094 474.933594 L 14.996094 687.289062 L 9.449219 687.289062 Z M 9.449219 474.933594 " clip-rule="nonzero"/></clipPath><clipPath id="b7d55cf441"><path d="M 0.449219 0.933594 L 5.996094 0.933594 L 5.996094 213.289062 L 0.449219 213.289062 Z M 0.449219 0.933594 " clip-rule="nonzero"/></clipPath><clipPath id="74bfd869b8"><rect x="0" width="6" y="0" height="214"/></clipPath><clipPath id="0550a7c196"><path d="M 796.503906 474.933594 L 802.050781 474.933594 L 802.050781 693 L 796.503906 693 Z M 796.503906 474.933594 " clip-rule="nonzero"/></clipPath><clipPath id="49079cc296"><path d="M 0.503906 0.933594 L 6.050781 0.933594 L 6.050781 219 L 0.503906 219 Z M 0.503906 0.933594 " clip-rule="nonzero"/></clipPath><clipPath id="3041168d00"><rect x="0" width="7" y="0" height="219"/></clipPath></defs><path fill="#ffffff" d="M 0.84375 775.574219 C 0.84375 794.601562 16.246094 810.003906 35.292969 810.003906 L 776.199219 810.003906 C 795.1875 810.003906 810.636719 794.601562 810.636719 775.574219 L 810.636719 35.261719 C 810.636719 16.273438 795.1875 0.84375 776.199219 0.84375 L 35.292969 0.84375 C 16.246094 0.84375 0.84375 16.273438 0.84375 35.261719 Z M 0.84375 775.574219 " fill-opacity="1" fill-rule="evenodd"/><path fill="#1c4a98" d="M 9.429688 775.574219 L 9.429688 35.261719 C 9.429688 21.011719 20.976562 9.417969 35.292969 9.417969 L 776.195312 9.417969 C 790.457031 9.417969 802.0625 21.011719 802.0625 35.261719 L 802.0625 775.574219 C 802.0625 789.890625 790.457031 801.429688 776.195312 801.429688 L 35.292969 801.429688 C 20.976562 801.429688 9.429688 789.890625 9.429688 775.574219 " fill-opacity="1" fill-rule="evenodd"/><path fill="#ffffff" d="M 9.296875 658.199219 L 9.296875 483.109375 L 319.109375 483.109375 L 318.320312 156.265625 L 490.757812 156.265625 L 491.671875 483.109375 L 801.453125 483.109375 L 801.453125 658.199219 Z M 9.296875 658.199219 " fill-opacity="1" fill-rule="evenodd"/><g clip-path="url(#afe996b740)"><g transform="matrix(1, 0, 0, 1, 315, 39)"><g clip-path="url(#98f336abb9)"><g clip-path="url(#09fa793afc)"><path fill="#1c4a98" d="M 0.945312 0.0859375 L 179.71875 0.0859375 L 179.71875 217.964844 L 0.945312 217.964844 Z M 0.945312 0.0859375 " fill-opacity="1" fill-rule="nonzero"/></g></g></g></g><g clip-path="url(#b358354f3a)"><g transform="matrix(1, 0, 0, 1, 386, 6)"><g clip-path="url(#b16e611ad2)"><g clip-path="url(#38c1acf5d5)"><path fill="#ffffff" d="M 0.265625 0.960938 L 37.734375 0.960938 L 37.734375 258.726562 L 0.265625 258.726562 Z M 0.265625 0.960938 " fill-opacity="1" fill-rule="nonzero"/></g></g></g></g><g clip-path="url(#df5bd8f633)"><g transform="matrix(1, 0, 0, 1, 9, 474)"><g clip-path="url(#74bfd869b8)"><g clip-path="url(#b7d55cf441)"><path fill="#1c4a98" d="M 0.449219 0.933594 L 5.996094 0.933594 L 5.996094 213.289062 L 0.449219 213.289062 Z M 0.449219 0.933594 " fill-opacity="1" fill-rule="nonzero"/></g></g></g></g><g clip-path="url(#0550a7c196)"><g transform="matrix(1, 0, 0, 1, 796, 474)"><g clip-path="url(#3041168d00)"><g clip-path="url(#49079cc296)"><path fill="#1c4a98" d="M 0.503906 0.933594 L 6.050781 0.933594 L 6.050781 219.007812 L 0.503906 219.007812 Z M 0.503906 0.933594 " fill-opacity="1" fill-rule="nonzero"/></g></g></g></g><path fill="#ffffff" d="M 484.976562 31.644531 C 476.144531 36.058594 472.726562 46.101562 477.140625 54.601562 C 480.230469 60.5625 483.984375 63.542969 489.722656 64.535156 C 496.015625 65.640625 500.871094 64.203125 505.175781 60.121094 C 514.335938 51.289062 512.238281 37.164062 500.980469 31.644531 C 494.800781 28.773438 490.824219 28.664062 484.976562 31.644531 Z M 484.976562 31.644531 " fill-opacity="1" fill-rule="nonzero"/><path fill="#ffffff" d="M 502.855469 69.722656 C 501.644531 70.054688 495.019531 72.039062 488.289062 74.136719 C 479.125 76.898438 475.375 78.664062 474.160156 80.539062 C 473.167969 81.972656 472.0625 87.605469 471.511719 93.675781 C 470.515625 103.71875 470.074219 105.152344 460.914062 124.800781 C 452.527344 142.789062 451.421875 145.769531 452.527344 148.089844 C 455.066406 153.71875 461.355469 149.523438 468.75 137.160156 C 470.957031 133.738281 472.945312 130.871094 473.277344 130.871094 C 473.609375 130.871094 473.496094 132.96875 473.167969 135.507812 C 472.0625 142.789062 463.675781 225.351562 463.453125 230.429688 C 463.234375 235.945312 466.324219 239.039062 471.953125 239.039062 C 475.484375 239.039062 479.125 236.71875 479.125 234.511719 C 479.125 233.960938 480.78125 223.695312 482.878906 211.664062 C 484.976562 199.742188 487.734375 182.96875 489.058594 174.46875 C 492.039062 154.269531 492.152344 154.050781 494.027344 154.050781 C 496.34375 154.050781 496.675781 154.933594 499.546875 171.929688 C 501.753906 184.621094 503.1875 189.480469 506.609375 196.542969 C 514.113281 211.773438 522.0625 218.175781 526.917969 212.769531 C 529.679688 209.789062 529.238281 205.484375 525.59375 197.757812 C 520.847656 188.042969 520.1875 185.726562 518.859375 177.667969 C 517.648438 169.832031 510.03125 102.945312 510.03125 99.632812 C 510.03125 96.324219 511.6875 98.308594 517.757812 109.015625 C 524.933594 121.597656 535.417969 137.273438 538.507812 140.140625 C 541.15625 142.460938 546.125 141.90625 547.117188 139.148438 C 548.441406 135.949219 520.1875 77.226562 515 72.371094 C 512.460938 70.054688 506.832031 68.839844 502.855469 69.722656 Z M 502.855469 69.722656 " fill-opacity="1" fill-rule="nonzero"/><path fill="#ffffff" d="M 587.625 98.972656 C 574.046875 105.703125 579.015625 126.457031 594.246094 126.457031 C 596.566406 126.457031 599.988281 125.683594 601.753906 124.6875 C 605.394531 122.921875 609.257812 115.75 609.367188 111.003906 C 609.367188 104.820312 601.199219 96.65625 595.019531 96.65625 C 593.472656 96.65625 590.164062 97.648438 587.625 98.972656 Z M 587.625 98.972656 " fill-opacity="1" fill-rule="nonzero"/><path fill="#ffffff" d="M 592.8125 133.851562 C 585.96875 134.511719 561.464844 138.597656 558.15625 139.480469 C 554.292969 140.582031 552.414062 143.011719 553.519531 145.769531 C 554.179688 147.535156 555.394531 147.648438 567.976562 146.984375 C 580.78125 146.324219 581.773438 146.324219 581.773438 148.199219 C 581.886719 149.304688 580.449219 162.660156 578.792969 177.890625 L 575.816406 205.703125 L 578.351562 218.730469 C 581.773438 236.386719 582.988281 239.039062 587.292969 239.039062 C 590.496094 239.039062 590.605469 238.925781 590.164062 234.84375 C 588.726562 223.585938 588.507812 197.535156 589.832031 194.996094 C 593.472656 187.933594 599.324219 189.257812 604.621094 198.199219 C 606.609375 201.511719 608.597656 204.933594 609.039062 205.703125 C 610.691406 208.574219 641.707031 197.207031 643.253906 193.121094 C 643.585938 192.128906 643.144531 190.582031 642.148438 189.699219 C 640.605469 188.15625 639.5 188.15625 630.117188 190.363281 C 615.4375 193.671875 615.550781 193.785156 612.898438 186.71875 C 609.480469 177.667969 608.042969 168.839844 608.484375 157.914062 C 608.816406 148.421875 608.925781 147.976562 611.355469 147.648438 C 614.667969 147.09375 617.316406 149.632812 621.507812 156.917969 C 624.929688 162.988281 627.691406 164.425781 630.230469 161.332031 C 631.664062 159.566406 629.675781 152.945312 625.261719 145.550781 C 620.625 137.492188 606.386719 132.414062 592.8125 133.851562 Z M 592.8125 133.851562 " fill-opacity="1" fill-rule="nonzero"/></svg>